<?xml version="1.0" standalone="no"?>
<!DOCTYPE svg PUBLIC "-//W3C//DTD SVG 20010904//EN"
 "http://www.w3.org/TR/2001/REC-SVG-20010904/DTD/svg10.dtd">
<svg version="1.0" xmlns="http://www.w3.org/2000/svg"
 width="64.000000pt" height="64.000000pt" viewBox="0 0 64.000000 64.000000"
 preserveAspectRatio="xMidYMid meet">

<g transform="translate(0.000000,64.000000) scale(0.100000,-0.100000)"
fill="#000000" stroke="none">
<path d="M40 608 c1 -97 38 -520 46 -527 5 -5 60 -25 122 -46 l112 -37 113 37
c61 21 116 41 121 46 8 7 45 430 46 527 l0 32 -280 0 -280 0 0 -32z m460 -98
l0 -40 -141 0 -140 0 3 -47 3 -48 132 -3 132 -3 -6 -97 c-3 -53 -9 -104 -14
-112 -4 -9 -39 -26 -79 -38 l-71 -23 -67 21 c-72 24 -92 41 -92 77 0 20 5 23
40 23 22 0 40 -4 40 -8 0 -5 18 -14 40 -21 60 -18 116 1 124 42 14 70 19 67
-118 67 -69 0 -127 3 -129 8 -3 4 -8 60 -11 125 l-7 117 180 0 181 0 0 -40z"/>
</g>
</svg>
